# xmcd CD database file
#
# Track frame offsets:
#	150
#	26437
#	62935
#	91935
#	132619
#
# Disc length: 2409 seconds
#
# Revision: 0
# Processed by: cddbd v1.5.2PL0 Copyright (c) Steve Scherf et al.
# Submitted via: CDex 1.70beta2
#
DISCID=40096705
DTITLE=Joe Zawinul - Brown Street 2
DYEAR=2006
DGENRE=Jazz
TTITLE0=March Of The Lost Children
TTITLE1=A Remark You Made
TTITLE2=Night Passage
TTITLE3=Procession
TTITLE4=Carnavalito
EXTD=YEAR: 2006
EXTT0=
EXTT1=
EXTT2=
EXTT3=
EXTT4=
PLAYORDER=
